<svg version="1.1" id="Layer_1" xmlns="http://www.w3.org/2000/svg" xmlns:xlink="http://www.w3.org/1999/xlink" x="0px" y="0px"
	 width="100%" viewBox="0 0 512 512" enable-background="new 0 0 512 512" xml:space="preserve">
<path fill="#000000" opacity="1.000000" stroke="none" 
	d="
M307.000000,513.000000 
	C204.691513,513.000000 102.883018,513.000000 1.037265,513.000000 
	C1.037265,342.399811 1.037265,171.799637 1.037265,1.099719 
	C171.558502,1.099719 342.117065,1.099719 512.837830,1.099719 
	C512.837830,171.666534 512.837830,342.333252 512.837830,513.000000 
	C444.466278,513.000000 375.983124,513.000000 307.000000,513.000000 
M295.516876,500.962891 
	C300.604034,499.861115 305.733551,498.924255 310.771240,497.629913 
	C336.568604,491.001801 361.373535,481.908478 384.405426,468.272217 
	C399.803223,459.155823 414.342621,448.862427 427.024414,436.273590 
	C435.663361,427.698029 443.744507,418.478363 451.365814,408.977753 
	C465.233246,391.690765 475.596130,372.293030 483.666901,351.691772 
	C495.815735,320.680786 500.803894,288.333374 500.898407,255.185898 
	C500.920319,247.495209 500.199005,239.709213 498.891357,232.127182 
	C496.126404,216.095398 493.541534,199.960953 489.414459,184.254456 
	C484.648773,166.117676 476.814911,149.081680 467.433502,132.739151 
	C458.182037,116.623001 447.472015,101.630119 434.614746,88.286201 
	C427.297974,80.692482 419.226593,73.805176 411.286530,66.837372 
	C398.320435,55.458988 383.550812,46.602036 368.138245,39.236416 
	C344.737579,28.053354 320.189056,20.107738 294.232666,16.857176 
	C279.273987,14.983877 264.462830,12.971314 249.251770,13.810007 
	C233.481979,14.679504 217.989075,16.731497 202.559067,19.928715 
	C173.399429,25.970829 146.360916,37.159943 121.365433,53.209099 
	C102.995537,65.004089 86.133682,78.780640 72.680656,96.056168 
	C62.587318,109.017395 52.564079,122.270905 44.495529,136.518890 
	C30.215061,161.736282 20.901941,188.951096 16.915510,217.843994 
	C14.466187,235.596222 12.357288,253.231018 13.717678,271.326965 
	C14.766045,285.272461 16.216249,299.037964 18.940613,312.740784 
	C24.789919,342.161194 35.986904,369.433014 52.197620,394.537262 
	C63.830467,412.552063 77.742470,428.702118 94.107811,442.790070 
	C106.934883,453.832153 120.628601,463.531647 135.381271,471.635223 
	C161.673386,486.077301 189.778610,495.579010 220.208878,500.860901 
	C245.033554,500.848724 269.858215,500.836578 295.516876,500.962891 
z"/>
<path fill="#1877F2" opacity="1.000000" stroke="none" 
	d="
M219.316940,500.824432 
	C189.778610,495.579010 161.673386,486.077301 135.381271,471.635223 
	C120.628601,463.531647 106.934883,453.832153 94.107811,442.790070 
	C77.742470,428.702118 63.830467,412.552063 52.197620,394.537262 
	C35.986904,369.433014 24.789919,342.161194 18.940613,312.740784 
	C16.216249,299.037964 14.766045,285.272461 13.717678,271.326965 
	C12.357288,253.231018 14.466187,235.596222 16.915510,217.843994 
	C20.901941,188.951096 30.215061,161.736282 44.495529,136.518890 
	C52.564079,122.270905 62.587318,109.017395 72.680656,96.056168 
	C86.133682,78.780640 102.995537,65.004089 121.365433,53.209099 
	C146.360916,37.159943 173.399429,25.970829 202.559067,19.928715 
	C217.989075,16.731497 233.481979,14.679504 249.251770,13.810007 
	C264.462830,12.971314 279.273987,14.983877 294.232666,16.857176 
	C320.189056,20.107738 344.737579,28.053354 368.138245,39.236416 
	C383.550812,46.602036 398.320435,55.458988 411.286530,66.837372 
	C419.226593,73.805176 427.297974,80.692482 434.614746,88.286201 
	C447.472015,101.630119 458.182037,116.623001 467.433502,132.739151 
	C476.814911,149.081680 484.648773,166.117676 489.414459,184.254456 
	C493.541534,199.960953 496.126404,216.095398 498.891357,232.127182 
	C500.199005,239.709213 500.920319,247.495209 500.898407,255.185898 
	C500.803894,288.333374 495.815735,320.680786 483.666901,351.691772 
	C475.596130,372.293030 465.233246,391.690765 451.365814,408.977753 
	C443.744507,418.478363 435.663361,427.698029 427.024414,436.273590 
	C414.342621,448.862427 399.803223,459.155823 384.405426,468.272217 
	C361.373535,481.908478 336.568604,491.001801 310.771240,497.629913 
	C305.733551,498.924255 300.604034,499.861115 295.231995,500.451233 
	C295.005371,497.943665 295.114166,495.947754 295.114532,493.951813 
	C295.123810,441.119446 295.121918,388.287109 295.121918,335.454742 
	C295.121918,333.512299 295.121918,331.569855 295.121918,329.048157 
	C314.476135,329.048157 333.202301,329.048157 352.171692,329.048157 
	C355.801758,305.358215 359.349457,282.205902 362.993896,258.422302 
	C340.233826,258.422302 317.984222,258.422302 295.855835,258.422302 
	C295.506805,257.423645 295.207886,256.966919 295.207733,256.510071 
	C295.202026,240.678665 294.640381,224.819351 295.394501,209.023071 
	C296.286560,190.338745 305.942719,178.725555 323.352661,175.747971 
	C333.107819,174.079590 343.257141,174.678772 353.231964,174.350067 
	C357.323547,174.215240 361.423248,174.327759 365.627563,174.327759 
	C365.627563,153.811386 365.627563,134.057709 365.627563,114.378128 
	C345.565430,109.417282 312.235931,107.896233 292.314331,111.241158 
	C270.851715,114.844818 251.680603,122.900574 237.846085,140.651184 
	C224.578156,157.674789 219.894638,177.649445 219.148590,198.612320 
	C218.508759,216.590393 218.927032,234.606125 218.878662,252.605209 
	C218.873886,254.381897 218.878006,256.158600 218.878006,258.455627 
	C197.938904,258.455627 177.667313,258.455627 157.120422,258.455627 
	C157.120422,282.202026 157.120422,305.422791 157.120422,329.289398 
	C177.794601,329.289398 198.174942,329.289398 218.878082,329.289398 
	C218.878082,331.911987 218.878067,333.894562 218.878067,335.877106 
	C218.878082,388.709442 218.872955,441.541809 218.896667,494.374146 
	C218.897629,496.524292 219.170654,498.674347 219.316940,500.824432 
z"/>
<path fill="#F0F1F1" opacity="1.000000" stroke="none" 
	d="
M219.762909,500.842651 
	C219.170654,498.674347 218.897629,496.524292 218.896667,494.374146 
	C218.872955,441.541809 218.878082,388.709442 218.878067,335.877106 
	C218.878067,333.894562 218.878082,331.911987 218.878082,329.289398 
	C198.174942,329.289398 177.794601,329.289398 157.120422,329.289398 
	C157.120422,305.422791 157.120422,282.202026 157.120422,258.455627 
	C177.667313,258.455627 197.938904,258.455627 218.878006,258.455627 
	C218.878006,256.158600 218.873886,254.381897 218.878662,252.605209 
	C218.927032,234.606125 218.508759,216.590393 219.148590,198.612320 
	C219.894638,177.649445 224.578156,157.674789 237.846085,140.651184 
	C251.680603,122.900574 270.851715,114.844818 292.314331,111.241158 
	C312.235931,107.896233 345.565430,109.417282 365.627563,114.378128 
	C365.627563,134.057709 365.627563,153.811386 365.627563,174.327759 
	C361.423248,174.327759 357.323547,174.215240 353.231964,174.350067 
	C343.257141,174.678772 333.107819,174.079590 323.352661,175.747971 
	C305.942719,178.725555 296.286560,190.338745 295.394501,209.023071 
	C294.640381,224.819351 295.202026,240.678665 295.207733,256.510071 
	C295.207886,256.966919 295.506805,257.423645 295.855835,258.422302 
	C317.984222,258.422302 340.233826,258.422302 362.993896,258.422302 
	C359.349457,282.205902 355.801758,305.358215 352.171692,329.048157 
	C333.202301,329.048157 314.476135,329.048157 295.121918,329.048157 
	C295.121918,331.569855 295.121918,333.512299 295.121918,335.454742 
	C295.121918,388.287109 295.123810,441.119446 295.114532,493.951813 
	C295.114166,495.947754 295.005371,497.943665 294.815002,500.382019 
	C269.858215,500.836578 245.033554,500.848724 219.762909,500.842651 
z"/>
</svg>