<svg version="1.1" id="Layer_1" xmlns="http://www.w3.org/2000/svg" xmlns:xlink="http://www.w3.org/1999/xlink" x="0px" y="0px"
	 width="100%" viewBox="0 0 512 512" enable-background="new 0 0 512 512" xml:space="preserve">
<path fill="#000000" opacity="1.000000" stroke="none" 
	d="
M513.000000,141.000000 
	C513.000000,265.303101 513.000000,389.106201 513.000000,512.954651 
	C342.405212,512.954651 171.810440,512.954651 1.107823,512.954651 
	C1.107823,342.446930 1.107823,171.893768 1.107823,1.170308 
	C171.666519,1.170308 342.333252,1.170308 513.000000,1.170308 
	C513.000000,47.522861 513.000000,94.011429 513.000000,141.000000 
M9.086474,437.821655 
	C9.057363,444.153198 9.258215,450.496033 8.947910,456.813782 
	C8.416655,467.630035 11.190219,477.348053 17.878418,485.866394 
	C27.073154,497.577148 38.561630,505.023956 54.003830,505.023346 
	C189.480453,505.017914 324.957123,504.959076 460.433594,505.098602 
	C478.729950,505.117432 496.382660,490.398956 502.155090,475.264252 
	C506.952911,462.684845 504.525055,449.723785 504.772400,435.970642 
	C504.847839,432.311432 504.988495,428.652222 504.989044,424.993011 
	C505.002106,338.145264 505.001129,251.297546 504.992249,164.449814 
	C504.992096,162.957733 504.863159,161.465652 504.913666,159.046432 
	C504.897797,132.687653 504.881927,106.328880 504.962860,79.502655 
	C504.962860,79.502655 504.871338,79.034126 505.029236,78.356781 
	C504.977509,77.899017 504.925812,77.441254 504.983063,76.053490 
	C504.988708,69.887169 504.779358,63.711498 505.047211,57.556587 
	C505.522583,46.633602 502.666473,36.823376 495.965027,28.180628 
	C487.213715,16.894249 476.115204,9.131119 461.501282,9.112753 
	C325.177612,8.941435 188.853607,8.974343 52.529755,9.055726 
	C34.709923,9.066364 18.024551,23.465792 11.998601,38.679146 
	C7.041871,51.193111 9.605817,64.182732 8.969705,77.658890 
	C9.022274,78.114983 9.074843,78.571083 9.036034,79.495987 
	C9.036034,79.495987 9.135478,79.963150 8.981054,80.893906 
	C9.055936,107.253639 9.130818,133.613373 9.036254,160.900497 
	C9.031960,250.066544 9.025074,339.232574 9.035232,428.398621 
	C9.035554,431.229828 9.211178,434.061035 9.086474,437.821655 
z"/>
<path fill="#0291E0" opacity="1.000000" stroke="none" 
	d="
M9.127412,79.027176 
	C9.074843,78.571083 9.022274,78.114983 9.372376,77.214905 
	C10.416984,75.647041 11.224658,74.585739 11.676191,73.389961 
	C19.422352,52.876160 36.544231,41.002182 58.487576,41.001804 
	C191.057556,40.999508 323.627533,40.998791 456.197510,41.002853 
	C477.316040,41.003502 494.731323,53.195599 502.237305,73.086365 
	C502.775970,74.513809 503.979645,75.690308 504.874115,76.983490 
	C504.925812,77.441254 504.977509,77.899017 504.859619,78.802734 
	C504.554016,79.514267 504.612701,79.754745 504.866058,79.970108 
	C504.881927,106.328880 504.897797,132.687653 504.525879,159.668060 
	C503.749786,161.332962 503.169952,162.346298 503.001312,163.423950 
	C499.200500,187.713043 490.852692,210.254745 477.666840,231.061218 
	C465.778900,249.819687 450.631653,265.461609 433.094086,278.533875 
	C433.510529,243.518143 419.376526,216.596817 390.676331,197.405411 
	C362.522308,178.579254 331.388031,173.827682 298.442688,178.620728 
	C289.993439,179.849960 281.690369,182.083618 272.898132,183.945190 
	C272.898132,181.597092 272.898132,179.499344 272.898132,177.304535 
	C251.444580,177.304535 230.383575,177.304535 208.999695,177.304535 
	C208.999695,184.578156 209.007950,191.550446 208.998337,198.522705 
	C208.945740,236.683777 208.888748,274.844849 208.375061,313.004395 
	C195.186661,312.678345 182.440063,312.643494 169.732086,311.925476 
	C161.512924,311.461121 153.350235,309.997131 145.091827,308.519623 
	C145.021393,264.482391 145.021393,220.906586 145.021393,177.339172 
	C123.348991,177.339172 102.300880,177.339172 81.000198,177.339172 
	C81.000198,179.656845 81.003349,181.637177 80.999725,183.617508 
	C80.942169,215.095444 80.883751,246.573364 80.497955,277.968567 
	C68.361839,269.905731 58.538231,259.805939 49.439865,248.957230 
	C28.634809,224.149597 16.099642,195.600876 10.957485,163.705688 
	C10.747183,162.401260 9.806239,161.214630 9.205702,159.973114 
	C9.130818,133.613373 9.055936,107.253639 9.147755,80.319977 
	C9.447916,79.478203 9.385569,79.238586 9.127412,79.027176 
M83.035667,125.970078 
	C78.553642,139.511612 82.295113,153.597504 92.505020,161.620331 
	C104.512085,171.055344 119.715164,171.602112 131.827606,163.034500 
	C143.537842,154.751373 147.823456,139.924484 142.924469,124.431297 
	C147.327988,111.171631 144.930130,99.291771 134.743042,89.695107 
	C125.185646,80.691650 113.712524,78.660431 101.396637,83.221107 
	C87.819130,88.249001 75.939667,104.535172 83.035667,125.970078 
z"/>
<path fill="#0281C7" opacity="1.000000" stroke="none" 
	d="
M433.164673,278.994507 
	C450.631653,265.461609 465.778900,249.819687 477.666840,231.061218 
	C490.852692,210.254745 499.200500,187.713043 503.001312,163.423950 
	C503.169952,162.346298 503.749786,161.332962 504.466217,160.131622 
	C504.863159,161.465652 504.992096,162.957733 504.992249,164.449814 
	C505.001129,251.297546 505.002106,338.145264 504.989044,424.993011 
	C504.988495,428.652222 504.847839,432.311432 504.419525,436.560547 
	C503.643768,437.844788 503.057831,438.488007 502.821686,439.240936 
	C496.094025,460.692505 475.457184,473.248535 453.410675,473.185425 
	C321.749176,472.808380 190.086060,473.002777 58.423473,472.994049 
	C36.548958,472.992584 19.389727,461.018799 11.614089,440.492126 
	C11.119986,439.187805 10.087243,438.087463 9.305082,436.892242 
	C9.211178,434.061035 9.035554,431.229828 9.035232,428.398621 
	C9.025074,339.232574 9.031960,250.066544 9.120978,160.436798 
	C9.806239,161.214630 10.747183,162.401260 10.957485,163.705688 
	C16.099642,195.600876 28.634809,224.149597 49.439865,248.957230 
	C58.538231,259.805939 68.361839,269.905731 80.569962,278.426819 
	C81.010071,319.628815 81.050598,360.289825 81.063393,401.420319 
	C81.026268,408.212158 81.096710,414.536102 80.972084,420.856201 
	C80.914162,423.793152 81.960022,425.043427 85.019257,425.030579 
	C103.653633,424.952240 122.288673,424.954620 140.923080,425.029663 
	C143.923630,425.041748 145.093048,423.909119 145.028229,420.913818 
	C144.884293,414.261749 144.936600,407.605438 144.947983,400.486725 
	C145.045456,369.675446 145.103851,339.328247 145.162247,308.981079 
	C153.350235,309.997131 161.512924,311.461121 169.732086,311.925476 
	C182.440063,312.643494 195.186661,312.678345 208.446320,313.467987 
	C209.014114,342.939117 209.052475,371.945129 209.063187,401.420624 
	C209.026184,408.212402 209.096649,414.536346 208.972046,420.856384 
	C208.914139,423.793457 209.960281,425.043488 213.019379,425.030609 
	C231.653656,424.952271 250.288574,424.954590 268.922882,425.029633 
	C271.923157,425.041718 273.093048,423.909576 273.028259,420.914062 
	C272.884369,414.262024 272.936768,407.605743 272.948303,400.487061 
	C273.047302,371.017853 273.107117,342.012787 273.625000,313.005981 
	C294.505371,313.002228 314.927704,313.018280 335.349915,312.973267 
	C337.657166,312.968170 339.974121,312.702209 342.268616,312.414185 
	C351.128723,311.302032 359.981567,310.131958 368.906677,309.448547 
	C369.014435,340.259521 369.052673,370.605377 369.063232,401.420654 
	C369.026215,408.212433 369.096710,414.536346 368.972076,420.856415 
	C368.914124,423.793549 369.960358,425.043488 373.019379,425.030640 
	C391.653687,424.952301 410.288574,424.954620 428.922882,425.029633 
	C431.923157,425.041718 433.093018,423.909576 433.028198,420.914062 
	C432.884308,414.262024 432.936768,407.605743 432.948334,400.487061 
	C432.991821,393.879669 432.991608,387.736389 433.001160,381.593140 
	C433.054352,347.393585 433.109924,313.194061 433.164673,278.994507 
z"/>
<path fill="#005A8C" opacity="1.000000" stroke="none" 
	d="
M9.195780,437.356934 
	C10.087243,438.087463 11.119986,439.187805 11.614089,440.492126 
	C19.389727,461.018799 36.548958,472.992584 58.423473,472.994049 
	C190.086060,473.002777 321.749176,472.808380 453.410675,473.185425 
	C475.457184,473.248535 496.094025,460.692505 502.821686,439.240936 
	C503.057831,438.488007 503.643768,437.844788 504.380615,437.020874 
	C504.525055,449.723785 506.952911,462.684845 502.155090,475.264252 
	C496.382660,490.398956 478.729950,505.117432 460.433594,505.098602 
	C324.957123,504.959076 189.480453,505.017914 54.003830,505.023346 
	C38.561630,505.023956 27.073154,497.577148 17.878418,485.866394 
	C11.190219,477.348053 8.416655,467.630035 8.947910,456.813782 
	C9.258215,450.496033 9.057363,444.153198 9.195780,437.356934 
z"/>
<path fill="#0AA8FF" opacity="1.000000" stroke="none" 
	d="
M504.928589,76.518494 
	C503.979645,75.690308 502.775970,74.513809 502.237305,73.086365 
	C494.731323,53.195599 477.316040,41.003502 456.197510,41.002853 
	C323.627533,40.998791 191.057556,40.999508 58.487576,41.001804 
	C36.544231,41.002182 19.422352,52.876160 11.676191,73.389961 
	C11.224658,74.585739 10.416984,75.647041 9.450371,76.877205 
	C9.605817,64.182732 7.041871,51.193111 11.998601,38.679146 
	C18.024551,23.465792 34.709923,9.066364 52.529755,9.055726 
	C188.853607,8.974343 325.177612,8.941435 461.501282,9.112753 
	C476.115204,9.131119 487.213715,16.894249 495.965027,28.180628 
	C502.666473,36.823376 505.522583,46.633602 505.047211,57.556587 
	C504.779358,63.711498 504.988708,69.887169 504.928589,76.518494 
z"/>
<path fill="#0AA8FF" opacity="1.000000" stroke="none" 
	d="
M504.914459,79.736382 
	C504.612701,79.754745 504.554016,79.514267 504.780640,79.141403 
	C504.871338,79.034126 504.962860,79.502655 504.914459,79.736382 
z"/>
<path fill="#0AA8FF" opacity="1.000000" stroke="none" 
	d="
M9.081722,79.261581 
	C9.385569,79.238586 9.447916,79.478203 9.224967,79.854599 
	C9.135478,79.963150 9.036034,79.495987 9.081722,79.261581 
z"/>
<path fill="#FFFFFF" opacity="1.000000" stroke="none" 
	d="
M369.090881,400.951202 
	C369.052673,370.605377 369.014435,340.259521 368.976990,308.986816 
	C368.930420,300.026093 368.883057,291.992249 368.896545,283.495605 
	C368.972687,277.879822 368.799255,272.718048 369.039093,267.575500 
	C369.730103,252.759064 362.257141,243.172379 349.181122,238.023010 
	C330.207703,230.551254 310.845062,230.694626 291.968384,238.334869 
	C281.400391,242.612213 273.958038,250.423721 273.119751,262.515991 
	C272.627045,269.623566 273.116760,276.799286 273.087158,284.410858 
	C273.062103,294.254150 273.114532,303.630951 273.166931,313.007721 
	C273.107117,342.012787 273.047302,371.017853 272.488708,400.508667 
	C251.023544,400.979980 230.057175,400.965576 209.090820,400.951172 
	C209.052475,371.945129 209.014114,342.939117 208.904510,313.469482 
	C208.888748,274.844849 208.945740,236.683777 208.998337,198.522705 
	C209.007950,191.550446 208.999695,184.578156 208.999695,177.304535 
	C230.383575,177.304535 251.444580,177.304535 272.898132,177.304535 
	C272.898132,179.499344 272.898132,181.597092 272.898132,183.945190 
	C281.690369,182.083618 289.993439,179.849960 298.442688,178.620728 
	C331.388031,173.827682 362.522308,178.579254 390.676331,197.405411 
	C419.376526,216.596817 433.510529,243.518143 433.094055,278.533875 
	C433.109924,313.194061 433.054352,347.393585 433.001160,381.593140 
	C432.991608,387.736389 432.991821,393.879669 432.488708,400.508667 
	C411.023560,400.980011 390.057220,400.965607 369.090881,400.951202 
z"/>
<path fill="#FFFFFF" opacity="1.000000" stroke="none" 
	d="
M81.091118,400.950867 
	C81.050598,360.289825 81.010071,319.628815 80.897537,278.509521 
	C80.883751,246.573364 80.942169,215.095444 80.999725,183.617508 
	C81.003349,181.637177 81.000198,179.656845 81.000198,177.339172 
	C102.300880,177.339172 123.348991,177.339172 145.021393,177.339172 
	C145.021393,220.906586 145.021393,264.482391 145.091827,308.519623 
	C145.103851,339.328247 145.045456,369.675446 144.488373,400.508301 
	C123.023499,400.979614 102.057304,400.965240 81.091118,400.950867 
z"/>
<path fill="#FDFEFF" opacity="1.000000" stroke="none" 
	d="
M83.248383,125.242165 
	C75.939667,104.535172 87.819130,88.249001 101.396637,83.221107 
	C113.712524,78.660431 125.185646,80.691650 134.743042,89.695107 
	C144.930130,99.291771 147.327988,111.171631 142.592987,125.020004 
	C134.541229,140.604675 121.305939,147.374878 105.806931,143.978439 
	C95.138763,141.640610 88.206635,134.573151 83.248383,125.242165 
z"/>
<path fill="#015C8E" opacity="1.000000" stroke="none" 
	d="
M83.142029,125.606125 
	C88.206635,134.573151 95.138763,141.640610 105.806931,143.978439 
	C121.305939,147.374878 134.541229,140.604675 142.506699,125.424271 
	C147.823456,139.924484 143.537842,154.751373 131.827606,163.034500 
	C119.715164,171.602112 104.512085,171.055344 92.505020,161.620331 
	C82.295113,153.597504 78.553642,139.511612 83.142029,125.606125 
z"/>
<path fill="#0291E0" opacity="1.000000" stroke="none" 
	d="
M273.625000,313.005981 
	C273.114532,303.630951 273.062103,294.254150 273.278351,284.120972 
	C275.848907,274.249390 281.297791,267.642120 289.728699,263.621765 
	C307.235474,255.273514 325.414032,255.223511 343.715149,260.150848 
	C356.180237,263.506866 365.322357,270.896759 368.835693,283.958374 
	C368.883057,291.992249 368.930420,300.026093 368.907440,308.521698 
	C359.981567,310.131958 351.128723,311.302032 342.268616,312.414185 
	C339.974121,312.702209 337.657166,312.968170 335.349915,312.973267 
	C314.927704,313.018280 294.505371,313.002228 273.625000,313.005981 
z"/>
<path fill="#005A8C" opacity="1.000000" stroke="none" 
	d="
M81.063393,401.420349 
	C102.057304,400.965240 123.023499,400.979614 144.449295,400.972412 
	C144.936600,407.605438 144.884293,414.261749 145.028229,420.913818 
	C145.093048,423.909119 143.923630,425.041748 140.923080,425.029663 
	C122.288673,424.954620 103.653633,424.952240 85.019257,425.030579 
	C81.960022,425.043427 80.914162,423.793152 80.972084,420.856201 
	C81.096710,414.536102 81.026268,408.212158 81.063393,401.420349 
z"/>
<path fill="#005A8C" opacity="1.000000" stroke="none" 
	d="
M209.063171,401.420624 
	C230.057175,400.965576 251.023544,400.979980 272.449524,400.972778 
	C272.936768,407.605743 272.884369,414.262024 273.028259,420.914062 
	C273.093048,423.909576 271.923157,425.041718 268.922882,425.029633 
	C250.288574,424.954590 231.653656,424.952271 213.019379,425.030609 
	C209.960281,425.043488 208.914139,423.793457 208.972046,420.856384 
	C209.096649,414.536346 209.026184,408.212402 209.063171,401.420624 
z"/>
<path fill="#005A8C" opacity="1.000000" stroke="none" 
	d="
M369.063232,401.420654 
	C390.057220,400.965607 411.023560,400.980011 432.449524,400.972778 
	C432.936768,407.605743 432.884308,414.262024 433.028198,420.914062 
	C433.093018,423.909576 431.923157,425.041718 428.922882,425.029633 
	C410.288574,424.954620 391.653687,424.952301 373.019379,425.030640 
	C369.960358,425.043488 368.914124,423.793549 368.972076,420.856415 
	C369.096710,414.536346 369.026215,408.212433 369.063232,401.420654 
z"/>
<path fill="#015C8E" opacity="1.000000" stroke="none" 
	d="
M368.896545,283.495605 
	C365.322357,270.896759 356.180237,263.506866 343.715149,260.150848 
	C325.414032,255.223511 307.235474,255.273514 289.728699,263.621765 
	C281.297791,267.642120 275.848907,274.249390 273.355774,283.654480 
	C273.116760,276.799286 272.627045,269.623566 273.119751,262.515991 
	C273.958038,250.423721 281.400391,242.612213 291.968384,238.334869 
	C310.845062,230.694626 330.207703,230.551254 349.181122,238.023010 
	C362.257141,243.172379 369.730103,252.759064 369.039093,267.575500 
	C368.799255,272.718048 368.972687,277.879822 368.896545,283.495605 
z"/>
</svg>